<svg width="32" height="32" viewBox="0 0 40 40" xmlns="http://www.w3.org/2000/svg">
  <rect width="40" height="40" rx="11" fill="#2E5D50"/>
  <path d="M20 9c-4.4 2.1-7.5 6-7.5 10.6C12.5 25.6 15.9 29.5 20 31c4.1-1.5 7.5-5.4 7.5-11.4C27.5 15 24.4 11.1 20 9Z" fill="#E4EDE5"/>
  <path d="M20 12.5v16" stroke="#2E5D50" stroke-width="1.6" stroke-linecap="round"/>
  <path d="M20 20.5c-2.4-.4-4-2-4.6-4.4 2.4.3 4 1.9 4.6 4.4Z" fill="#2E5D50"/>
  <path d="M20 18c2-.5 3.4-1.9 4-4-2 .4-3.4 1.8-4 4Z" fill="#CE8B4A"/>
</svg>
